<svg id="Layer_1" data-name="Layer 1" xmlns="http://www.w3.org/2000/svg" viewBox="0 0 49.01 46.55"><title>PumaKeiths</title><path d="M330.19,384.29c-.79-1-2.15-.21-2.76.15-4.31,2.56-4.94,7.07-6.43,9.66-1.2,2.07-3.13,3.59-4.86,3.71a8.59,8.59,0,0,1-4.09-.77,20.66,20.66,0,0,1-5.68-3.75c-.91-.7-8-7.64-13.7-7.92h0l-.1-.19c-.15-.34-.36-1,.17-1.33,0,0,2.57-1.48,3.35-2l.27-.18a2.69,2.69,0,0,1,1.51-.54s1.38.25,1.68-.61a.07.07,0,0,0-.07-.1h-.12a5.85,5.85,0,0,1-1.79.25,3.37,3.37,0,0,0,.74-1.91,14.26,14.26,0,0,1,.47-2,8.41,8.41,0,0,1,1.44-2.3,1.13,1.13,0,0,0,.28-.37.49.49,0,0,0,0-.48s-.18-.34-1.15,1.28c0,0-.13.13-.23-.26,0,0-.25-.8-.42-1.37a.84.84,0,0,0-.13-.27c-.07-.1-.16-.17-.17.08a.83.83,0,0,0,0,.27,5.86,5.86,0,0,1-.06,3.37s-.15.17-.22-.05c0,0-.51-2.72-.72-2.62,0,0-.29-.42.21,3.07,0,0,.34,2.26-1,3.25,0,0-.11.08,0-.51a5.33,5.33,0,0,0-.5-3.06l0,0c-.05,0-.19,0-.11.43,0,0,.6,2.68-.62,4a6.78,6.78,0,0,1-3,1.5s-.34,0-.6-1.37c0,0-.19-1.45-.76-1.49,0,0-.36-.05,0,.92a9.58,9.58,0,0,1,.42,2.48,1.9,1.9,0,0,1-.14.75,7,7,0,0,0-.76.86,6.18,6.18,0,0,0-.72-.85,2,2,0,0,1-.09-.76,9.67,9.67,0,0,1,.6-2.44c.42-.95.06-.92.06-.92-.57,0-.87,1.43-.87,1.43-.36,1.36-.7,1.32-.7,1.32a6.76,6.76,0,0,1-2.85-1.71c-1.12-1.41-.32-4.05-.32-4.05.11-.43,0-.44-.09-.43l0,0a5.3,5.3,0,0,0-.72,3c0,.6-.06.51-.06.51-1.22-1.08-.72-3.31-.72-3.31.76-3.45.44-3.05.44-3.05-.2-.11-.91,2.56-.91,2.56-.09.22-.22,0-.22,0a5.92,5.92,0,0,1,.18-3.37.86.86,0,0,0,.05-.27c0-.24-.09-.18-.17-.08a.77.77,0,0,0-.14.25c-.21.56-.52,1.34-.52,1.34-.13.38-.25.24-.25.24-.85-1.68-1-1.36-1-1.36a.46.46,0,0,0,0,.48,1.5,1.5,0,0,0,.25.4,8.38,8.38,0,0,1,1.28,2.39,16.32,16.32,0,0,1,.32,2.06,3.35,3.35,0,0,0,.6,2,6.13,6.13,0,0,1-1.77-.38l-.12,0c-.05,0-.1.05-.08.1.23.87,1.63.72,1.63.72a2.75,2.75,0,0,1,1.47.65l.25.21c.74.53,3.2,2.19,3.2,2.19a1.06,1.06,0,0,1,.25,1.34,2.53,2.53,0,0,1-.39.52c-.41.4-.92.38-1.2.87-.1.19-.07.51-.18.81-.23.61-1,.66-1,1.33s.67.85,1.26,1.36.5.69,1.05.89,1.18-.37,1.81-.18,1,.27,1.13.8,0,1.25-.63,1.17a6.74,6.74,0,0,0-2.27-.22c-1.36.16-2.92.6-3.07,2.12a1.75,1.75,0,0,0,2,1.65c.71-.14.37-1,.76-1.37s3.34,1.8,6,1.8a3.43,3.43,0,0,0,2.75-1.14c.08-.06.17-.2.29-.21a1.15,1.15,0,0,1,.37.16c2.13,1.71,3.74,5.14,11.55,5.18a5.23,5.23,0,0,1,3.37,1.46,9.17,9.17,0,0,1,2,3.49,18.82,18.82,0,0,0,4.31,6.09c.12.12,1.87,1.48,2,1.58a.83.83,0,0,1,.1.49c-.05,1.3-.24,5.07,2.57,5.24.69,0,.51-.45.51-.78a4,4,0,0,1,.22-2c.48-.93-1-1.35-1-3.35,0-1.49-1.22-1.24-1.85-2.37a3.07,3.07,0,0,1-.67-1.81c.14-4.53-1-7.5-1.51-8.23-.44-.55-.79-.77-.4-1a7.16,7.16,0,0,0,2.88-3c1.24-2.93,2.36-5.61,3.91-6.79a11.38,11.38,0,0,1,1.6-1.07,10.49,10.49,0,0,0,2.62-1.5C330.3,386.45,330.83,385.11,330.19,384.29Z" transform="translate(-281.47 -372.44)"/></svg>